<?xml version="1.0" standalone="no"?>
<!DOCTYPE svg PUBLIC "-//W3C//DTD SVG 20010904//EN"
 "http://www.w3.org/TR/2001/REC-SVG-20010904/DTD/svg10.dtd">
<svg version="1.0" xmlns="http://www.w3.org/2000/svg"
 width="1024.000000pt" height="1024.000000pt" viewBox="0 0 1024.000000 1024.000000"
 preserveAspectRatio="xMidYMid meet">

<g transform="translate(0.000000,1024.000000) scale(0.100000,-0.100000)"
fill="#E63946" stroke="none">
<path d="M4829 8177 c-129 -87 -190 -352 -144 -623 20 -117 50 -178 88 -182
46 -5 46 -5 215 283 80 135 115 224 120 301 5 84 -8 132 -51 180 -41 48 -77
64 -140 64 -40 0 -63 -6 -88 -23z"/>
<path d="M5500 7873 c-112 -39 -214 -135 -335 -318 -108 -164 -255 -459 -255
-514 0 -11 10 -31 21 -42 18 -18 29 -20 70 -15 120 16 392 137 514 229 131 98
240 245 279 376 28 96 16 160 -45 226 -65 70 -155 91 -249 58z"/>
<path d="M4225 7396 c-38 -17 -60 -41 -80 -89 -21 -51 -19 -94 9 -152 42 -85
93 -130 196 -170 64 -25 232 -65 273 -65 36 0 77 37 77 68 0 93 -184 343 -295
401 -46 24 -133 28 -180 7z"/>
<path d="M5775 7138 c-11 -6 -47 -37 -80 -68 -119 -113 -266 -193 -485 -265
-174 -56 -333 -88 -600 -120 -117 -14 -216 -27 -218 -29 -5 -5 56 -22 148 -42
329 -69 1013 -13 1242 102 149 74 215 163 205 274 -6 69 -35 123 -77 145 -34
18 -106 19 -135 3z"/>
<path d="M6200 6698 c-14 -8 -35 -33 -48 -56 -76 -137 -437 -240 -1015 -287
-98 -8 -137 -35 -137 -95 0 -46 37 -95 77 -103 44 -8 378 11 577 33 337 38
702 128 800 197 22 16 49 43 59 61 17 29 18 39 8 72 -14 49 -76 104 -165 148
-79 39 -122 47 -156 30z"/>
<path d="M3371 6545 c-327 -110 -596 -254 -798 -427 -225 -193 -388 -434 -449
-663 -25 -95 -26 -294 -1 -383 31 -110 57 -158 180 -336 l27 -39 0 -716 c0
-612 2 -725 15 -776 52 -199 211 -337 565 -488 522 -222 1217 -348 2010 -364
947 -18 1843 140 2447 431 251 122 351 214 421 390 15 36 17 126 22 788 l5
746 32 44 c124 165 165 251 190 398 13 79 14 111 5 190 -51 430 -418 838 -972
1080 -136 59 -191 65 -234 25 -17 -16 -26 -34 -26 -56 0 -48 -29 -98 -79 -135
-103 -75 -355 -161 -644 -218 -319 -63 -566 -86 -1007 -92 -179 -3 -339 -7
-357 -10 -18 -2 -46 -16 -63 -30 -53 -45 -38 -134 30 -169 24 -12 86 -15 363
-15 849 0 1465 87 2009 283 l96 35 57 -23 c80 -33 126 -67 237 -173 200 -193
308 -410 295 -592 -6 -91 -44 -202 -67 -198 -12 3 -16 26 -20 130 -6 143 -16
168 -84 202 -38 18 -39 18 -85 0 -57 -24 -92 -81 -71 -118 8 -16 11 -83 8
-232 -3 -239 -2 -233 -95 -299 -41 -29 -65 -55 -85 -94 l-28 -53 0 -210 c0
-242 -6 -273 -65 -334 -93 -97 -234 -77 -294 41 l-26 50 0 535 c0 485 -2 539
-17 573 -67 150 -236 218 -380 154 -53 -24 -115 -82 -141 -134 -33 -64 -37
-137 -38 -803 -1 -756 1 -732 -76 -800 -100 -87 -234 -61 -303 61 l-25 44 -5
580 -5 580 -23 47 c-99 200 -393 188 -489 -19 -16 -34 -18 -88 -23 -498 l-5
-460 -24 -42 c-62 -107 -201 -136 -288 -60 -69 60 -73 80 -73 367 0 226 -3
260 -19 296 -25 54 -76 80 -126 64 -20 -6 -40 -20 -45 -30 -6 -10 -10 -74 -10
-143 0 -118 -1 -125 -24 -146 -25 -24 -54 -23 -75 2 -7 9 -12 158 -15 424 -5
440 -7 454 -57 500 -53 48 -121 52 -168 9 -41 -37 -52 -79 -50 -195 1 -64 -3
-116 -10 -129 -16 -30 -14 -62 6 -84 15 -17 15 -20 -3 -53 -16 -29 -16 -39 -6
-68 8 -21 12 -93 12 -193 0 -138 -3 -165 -21 -204 -24 -54 -44 -77 -84 -98
-102 -53 -214 -19 -268 81 -22 41 -22 51 -27 467 l-5 425 -28 57 c-34 70 -110
140 -174 162 -60 20 -146 20 -206 0 -93 -32 -189 -147 -201 -241 -3 -21 -8
-282 -11 -581 -3 -393 -8 -555 -17 -585 -7 -25 -30 -59 -54 -84 -97 -97 -240
-77 -311 44 l-28 48 -3 671 -3 671 36 74 c44 92 46 144 9 188 -73 87 -208 52
-269 -70 -25 -48 -25 -50 -25 -337 0 -240 -2 -292 -14 -301 -22 -18 -47 0
-101 71 -88 116 -121 221 -113 359 6 101 34 187 93 289 81 138 238 299 368
378 l55 33 129 -49 c233 -90 451 -144 766 -192 223 -34 510 -62 550 -53 45 9
87 58 87 102 0 81 -48 109 -213 122 -446 35 -892 119 -1004 189 -38 23 -45 66
-15 92 35 32 133 80 238 118 123 44 154 70 154 126 0 46 -14 70 -50 89 -41 21
-49 20 -199 -30z m2261 -1872 c11 -13 17 -54 22 -151 7 -132 7 -132 -18 -157
-31 -31 -43 -31 -73 -3 -22 20 -23 28 -23 155 0 120 2 135 20 153 25 25 52 26
72 3z m-1896 -614 c18 -20 19 -44 22 -431 3 -375 1 -412 -14 -429 -21 -23 -52
-24 -76 -2 -17 15 -18 42 -18 431 0 373 2 417 17 434 21 24 46 23 69 -3z m439
-325 c45 -21 79 -76 117 -187 43 -125 45 -212 6 -279 -82 -139 -283 -129 -349
17 -25 55 -24 117 6 219 34 118 78 202 118 226 39 24 59 25 102 4z m2933 -111
c89 -67 77 -218 -21 -270 -44 -23 -122 -21 -156 4 -68 51 -87 122 -55 203 36
89 155 121 232 63z m-1948 -108 c131 -68 75 -276 -71 -263 -78 8 -129 62 -129
138 0 104 109 172 200 125z m-1903 -155 c9 -18 13 -92 13 -264 0 -232 -1 -240
-22 -263 -27 -29 -45 -29 -75 -1 -23 21 -23 23 -23 268 0 209 2 249 16 268 22
32 74 27 91 -8z m2863 -92 c57 -39 75 -72 75 -138 0 -71 -21 -105 -85 -137
-54 -28 -82 -29 -135 -3 -103 50 -114 186 -21 268 30 27 45 32 85 32 33 0 58
-7 81 -22z"/>
<path d="M3843 6410 c-84 -36 -53 -164 44 -184 129 -26 436 -60 645 -72 113
-6 131 -5 155 11 41 27 52 46 53 87 0 28 -7 42 -30 62 -33 28 -59 32 -230 41
-63 4 -203 18 -310 32 -242 31 -299 35 -327 23z"/>
<path d="M7190 5722 c-62 -31 -65 -92 -8 -158 39 -45 90 -67 129 -59 37 8 79
59 79 95 0 38 -52 97 -105 121 -50 23 -52 23 -95 1z"/>
</g>
</svg>
